<svg width="136" height="78" viewBox="0 0 136 78" fill="none" xmlns="http://www.w3.org/2000/svg">
<path d="M38.0781 75.9219C42.8281 75.9219 47.6875 74.8438 52.6562 72.6875C57.6562 70.5 61.6094 67.2969 64.5156 63.0781C64.5156 62.6719 64.3281 62.3281 63.9531 62.0469C63.6094 61.7656 63.2188 61.625 62.7812 61.625C58.0938 67.3125 51.2031 70.1562 42.1094 70.1562C32.5156 70.1562 25.2656 67.2656 20.3594 61.4844C15.4844 55.6719 13.0469 48.4531 13.0469 39.8281C13.0469 35.9219 13.4688 32.1562 14.3125 28.5312C15.1875 24.875 16.5312 21.3906 18.3438 18.0781C20.1875 14.7344 22.7969 12.0312 26.1719 9.96875C29.5781 7.90625 33.5469 6.875 38.0781 6.875C41.1719 6.875 44.0312 7.35937 46.6562 8.32812C49.2812 9.29688 51.4375 10.4375 53.125 11.75C54.8125 13.0625 56.4531 14.8281 58.0469 17.0469C59.6719 19.2344 60.8906 21.1406 61.7031 22.7656C62.5469 24.3594 63.5469 26.3906 64.7031 28.8594C65.6406 28.7344 66.2188 28.3906 66.4375 27.8281C64.125 18.5469 60.625 12.1875 55.9375 8.75C51.2812 5.28125 45.3281 3.54688 38.0781 3.54688C35.1406 3.54688 32.1406 3.90625 29.0781 4.625C26.0156 5.3125 22.8594 6.5625 19.6094 8.375C16.3906 10.1562 13.5469 12.375 11.0781 15.0312C8.60938 17.6562 6.57812 21.125 4.98438 25.4375C3.39062 29.7188 2.59375 34.5156 2.59375 39.8281C2.59375 45.1406 3.39062 49.9375 4.98438 54.2188C6.57812 58.5 8.60938 61.9531 11.0781 64.5781C13.5469 67.2031 16.3906 69.4062 19.6094 71.1875C22.8594 72.9375 26.0156 74.1562 29.0781 74.8438C32.1406 75.5625 35.1406 75.9219 38.0781 75.9219ZM63.5312 30.9688C62.1875 27.9688 60.9531 25.5 59.8281 23.5625C58.7031 21.5938 57.2031 19.4062 55.3281 17C53.4531 14.5625 51.2188 12.6719 48.625 11.3281C46.0312 9.98438 43.125 9.17188 39.9062 8.89062C36.3438 9.17188 33.2344 10.3125 30.5781 12.3125C27.9219 14.2812 25.8594 16.8125 24.3906 19.9062C22.9531 23 21.8906 26.2188 21.2031 29.5625C20.5469 32.875 20.2188 36.2969 20.2188 39.8281C20.2188 47.7031 22.2031 54.3125 26.1719 59.6562C30.1406 65 36.0625 67.8594 43.9375 68.2344C51.5625 67.8594 57.5469 65.0156 61.8906 59.7031C63.1094 59.7031 64.1719 60.1094 65.0781 60.9219C65.9844 61.7031 66.4375 62.6406 66.4375 63.7344C63.2812 68.3281 59.0156 71.8281 53.6406 74.2344C48.2656 76.6406 43.0781 77.8438 38.0781 77.8438C34.9531 77.8438 31.7812 77.4688 28.5625 76.7188C25.375 76 22.0625 74.7188 18.625 72.875C15.2188 71 12.2031 68.6719 9.57812 65.8906C6.95312 63.1094 4.8125 59.4688 3.15625 54.9688C1.5 50.4375 0.671875 45.3906 0.671875 39.8281C0.671875 34.0156 1.53125 28.8281 3.25 24.2656C4.96875 19.6719 7.17188 16 9.85938 13.25C12.5469 10.5 15.6875 8.21875 19.2812 6.40625C22.875 4.5625 26.3594 3.3125 29.7344 2.65625C33.1406 1.96875 36.5625 1.625 40 1.625C44.6875 1.625 49.7812 2.25 55.2812 3.5C60.7812 4.75 64.7188 5.53125 67.0938 5.84375C66.0625 9.875 65.6562 13.4219 65.875 16.4844C66.0938 19.5156 66.9844 23.2344 68.5469 27.6406C67.6406 29.4844 65.9688 30.5938 63.5312 30.9688ZM107.828 71.8438C107.453 72.5625 107.453 73.3281 107.828 74.1406C115.953 73.9531 124.078 73.9531 132.203 74.1406C132.672 73.3906 132.672 72.625 132.203 71.8438C124.609 71.4688 120.781 69.9688 120.719 67.3438L120.203 43.7656C120.078 39.4844 119.391 36.3594 118.141 34.3906C116.891 32.3906 114.734 31.3906 111.672 31.3906C106.484 31.3906 100.312 34.9688 93.1562 42.125V3.82812C92.9062 3.32812 92.3594 2.90625 91.5156 2.5625C87.1719 4.625 82.6562 5.90625 77.9688 6.40625C77.7812 7.1875 77.7812 7.92187 77.9688 8.60938C81.5625 8.79688 84.2188 9.4375 85.9375 10.5312V67.3438C85.875 69.6562 83.1875 71.1562 77.875 71.8438C77.5 72.5625 77.5 73.3281 77.875 74.1406C86.0625 73.8281 94.2188 73.8281 102.344 74.1406C102.75 73.3281 102.75 72.5625 102.344 71.8438C96.5312 71.2188 93.5938 69.7188 93.5312 67.3438C93.2812 60.6875 93.1562 53.2812 93.1562 45.125C99.4062 39.5938 104.328 36.8281 107.922 36.8281C111.328 36.8281 113.031 39.6562 113.031 45.3125L112.938 67.3438C112.938 68.875 112.469 69.9531 111.531 70.5781C110.594 71.1719 109.359 71.5938 107.828 71.8438ZM106.281 75.7812C105.531 73.9375 105.531 72.0469 106.281 70.1094C107.312 70.1094 108.359 69.8438 109.422 69.3125C110.484 68.75 111.016 68.0938 111.016 67.3438L111.109 45.3125C111.109 41.9062 110.438 39.8281 109.094 39.0781C106.781 39.6406 103.672 41.3281 99.7656 44.1406C99.7656 52.5781 99.8906 60.2812 100.141 67.25C100.266 68.9062 101.516 69.8594 103.891 70.1094C104.672 72.0469 104.672 73.9375 103.891 75.7812C94.7344 75.4688 85.5156 75.4688 76.2344 75.7812C75.4844 73.9375 75.4844 72.0469 76.2344 70.1094C81.3594 69.4219 83.9531 68.4688 84.0156 67.25V11.7031C81.9219 11.0469 79.3281 10.625 76.2344 10.4375C75.5469 8.59375 75.5469 6.60937 76.2344 4.48438C80.9844 4.23438 86.2969 2.82813 92.1719 0.265625C95.5781 0.515625 98.1094 1.54687 99.7656 3.35938V33.875C104.172 30.9375 109.266 29.4688 115.047 29.4688C119.266 29.4688 122.266 30.625 124.047 32.9375C125.859 35.2188 126.797 38.8281 126.859 43.7656C126.984 56.0156 127.141 63.875 127.328 67.3438C127.391 68.625 129.594 69.5469 133.938 70.1094C134.656 72.1719 134.594 74.0625 133.75 75.7812C124.594 75.5938 115.438 75.5938 106.281 75.7812Z" fill="black"/>
</svg>
