<svg width="20" height="21" viewBox="0 0 20 21" fill="none" xmlns="http://www.w3.org/2000/svg">
<path d="M19.5 16C19.5 16.8619 19.2537 17.5091 18.8311 18.0127C18.401 18.5254 17.7569 18.926 16.904 19.2285C15.1837 19.8386 12.762 20 10 20C7.23804 20 4.8163 19.8386 3.09605 19.2285C2.24312 18.926 1.59905 18.5254 1.16888 18.0127C0.746327 17.5091 0.5 16.8619 0.5 16C0.5 14.2749 1.49823 12.6621 3.21566 11.4599C4.93152 10.2588 7.32858 9.5 10 9.5C12.6714 9.5 15.0685 10.2588 16.7843 11.4599C18.5018 12.6621 19.5 14.2749 19.5 16Z" stroke="black"/>
<circle cx="9.5" cy="6.5" r="6" fill="white" stroke="black"/>
</svg>
